<svg width="28" height="28" viewBox="0 0 28 28" fill="none" xmlns="http://www.w3.org/2000/svg">
<path d="M7 14C10.866 14 14 10.866 14 7C14 3.13401 10.866 0 7 0C3.13401 0 0 3.13401 0 7C0 10.866 3.13401 14 7 14Z" fill="white"/>
<path d="M21 13.3779C24.5224 13.3779 27.3779 10.5224 27.3779 7C27.3779 3.47757 24.5224 0.62207 21 0.62207C17.4776 0.62207 14.6221 3.47757 14.6221 7C14.6221 10.5224 17.4776 13.3779 21 13.3779Z" stroke="white" stroke-width="1.24413"/>
<path d="M21 27.3779C24.5224 27.3779 27.3779 24.5224 27.3779 21C27.3779 17.4776 24.5224 14.6221 21 14.6221C17.4776 14.6221 14.6221 17.4776 14.6221 21C14.6221 24.5224 17.4776 27.3779 21 27.3779Z" stroke="white" stroke-width="1.24413"/>
<path d="M7 28C10.866 28 14 24.866 14 21C14 17.134 10.866 14 7 14C3.13401 14 0 17.134 0 21C0 24.866 3.13401 28 7 28Z" fill="white"/>
</svg>
